# xmcd
#
# Track frame offsets:
#	150
#	19142
#	40894
#	57156
#	77153
#	94878
#
# Disc length: 1526 seconds
#
# Revision: 0
# Processed by: cddbd v1.4PL0 Copyright (c) Steve Scherf et al.
# Submitted via: dBpowerAMP V4.0
#
DISCID=4405f406
DTITLE=Duane Jarvis - The Coal Men - The Duane Jarvis/Dave Coleman and The Coal Men EP
DYEAR=1900
DGENRE=Country
TTITLE0=Love Sometimes
TTITLE1=Four-Letter Man
TTITLE2=My Brush is Dry
TTITLE3=Jamestown
TTITLE4=Comebackville
TTITLE5=I Can't Thank You Enough
EXTD=
EXTT0=
EXTT1=
EXTT2=
EXTT3=
EXTT4=
EXTT5=
PLAYORDER=
